<svg width="25" height="25" viewBox="0 0 25 25" fill="none" xmlns="http://www.w3.org/2000/svg">
<path d="M15.22 8.92428L10.93 13.2243L9.28 11.5743C9.19036 11.4696 9.08004 11.3846 8.95597 11.3246C8.83191 11.2646 8.69678 11.2308 8.55906 11.2255C8.42134 11.2202 8.28401 11.2434 8.15568 11.2937C8.02736 11.3439 7.91081 11.4202 7.81335 11.5176C7.7159 11.6151 7.63964 11.7317 7.58937 11.86C7.53909 11.9883 7.51589 12.1256 7.52121 12.2634C7.52653 12.4011 7.56026 12.5362 7.62028 12.6603C7.6803 12.7843 7.76532 12.8947 7.87 12.9843L10.22 15.3443C10.3134 15.437 10.4243 15.5103 10.5461 15.5601C10.6679 15.6098 10.7984 15.6351 10.93 15.6343C11.1923 15.6332 11.4437 15.529 11.63 15.3443L16.63 10.3443C16.7237 10.2513 16.7981 10.1407 16.8489 10.0189C16.8997 9.897 16.9258 9.76629 16.9258 9.63428C16.9258 9.50227 16.8997 9.37156 16.8489 9.2497C16.7981 9.12784 16.7237 9.01724 16.63 8.92428C16.4426 8.73803 16.1892 8.63349 15.925 8.63349C15.6608 8.63349 15.4074 8.73803 15.22 8.92428ZM12.5 2.13428C10.5222 2.13428 8.58879 2.72077 6.9443 3.81958C5.29981 4.9184 4.01809 6.48018 3.26121 8.30745C2.50433 10.1347 2.3063 12.1454 2.69215 14.0852C3.078 16.025 4.03041 17.8068 5.42894 19.2054C6.82746 20.6039 8.60929 21.5563 10.5491 21.9422C12.4889 22.328 14.4996 22.13 16.3268 21.3731C18.1541 20.6162 19.7159 19.3345 20.8147 17.69C21.9135 16.0455 22.5 14.1121 22.5 12.1343C22.5 10.8211 22.2413 9.5207 21.7388 8.30745C21.2363 7.09419 20.4997 5.9918 19.5711 5.06321C18.6425 4.13463 17.5401 3.39803 16.3268 2.89548C15.1136 2.39294 13.8132 2.13428 12.5 2.13428ZM12.5 20.1343C10.9178 20.1343 9.37104 19.6651 8.05544 18.7861C6.73985 17.907 5.71447 16.6576 5.10897 15.1958C4.50347 13.734 4.34504 12.1254 4.65372 10.5736C4.9624 9.02171 5.72433 7.59625 6.84315 6.47743C7.96197 5.35861 9.38743 4.59668 10.9393 4.288C12.4911 3.97932 14.0997 4.13774 15.5615 4.74324C17.0233 5.34875 18.2727 6.37412 19.1518 7.68972C20.0308 9.00531 20.5 10.552 20.5 12.1343C20.5 14.256 19.6572 16.2909 18.1569 17.7912C16.6566 19.2914 14.6217 20.1343 12.5 20.1343Z" fill="#EDF1FF"/>
</svg>
